<svg xmlns="http://www.w3.org/2000/svg" viewBox="0 0 100 100">
  <path d="M50 55.022c-2.773 0-5.022-2.249-5.022-5.022 0-2.774 2.249-5.022 5.022-5.022s5.022 2.249 5.022 5.022-2.249 5.022-5.022 5.022zM95 50c0 24.854-20.146 45-45 45C25.147 95 5 74.854 5 50 5 25.147 25.147 5 50 5c24.854 0 45 20.147 45 45zm-2.896 0C92.104 26.747 73.253 7.897 50 7.897S7.897 26.747 7.897 50 26.747 92.104 50 92.104 92.104 73.253 92.104 50zm-1.788 0c0 9.074-2.998 17.448-8.058 24.186-.475.631-.969 1.247-1.479 1.85-3.861 4.561-8.717 8.253-14.233 10.74-.931.419-1.88.803-2.846 1.151-4.277 1.546-8.891 2.39-13.701 2.39s-9.423-.844-13.701-2.39c-.744-.269-1.478-.56-2.201-.87-5.565-2.391-10.483-5.999-14.42-10.488-.52-.594-1.023-1.201-1.508-1.824C12.852 67.913 9.684 59.327 9.684 50c0-.438.009-.874.023-1.308.018-.557.045-1.111.086-1.662.449-6.175 2.289-11.963 5.208-17.055.393-.686.808-1.357 1.239-2.017 5.092-7.783 12.8-13.698 21.877-16.495.979-.301 1.975-.566 2.984-.793 2.863-.645 5.841-.987 8.898-.987 3.07 0 6.061.345 8.935.995.767.174 1.524.369 2.273.585 9.14 2.64 16.943 8.425 22.163 16.108.443.652.866 1.318 1.271 1.997 3.011 5.045 4.95 10.802 5.506 16.959.05.55.091 1.103.118 1.66.034.668.051 1.339.051 2.013zm-8.573-18.986l-16.021 9.083-1.206.684c-1.477 1.163-2.148 3.165-1.534 5.056.561 1.724 2.038 2.892 3.717 3.142l2.354-.266 17.783-2.009c-.503-5.701-2.299-11.029-5.093-15.69zm-23.57 4.995c-.007.043-.012.086-.016.129-.054.611.203 1.234.736 1.621.528.384 1.195.438 1.757.204.047-.02.093-.041.138-.064l19.519-9.098c-4.685-6.685-11.523-11.749-19.51-14.183l-2.624 21.391zM56.184 50c0-3.415-2.769-6.184-6.184-6.184S43.816 46.585 43.816 50s2.769 6.184 6.184 6.184 6.184-2.769 6.184-6.184zm-6.236 7.526c-.976 0-1.767.791-1.767 1.767 0 .977.791 1.768 1.767 1.768s1.767-.791 1.767-1.768c0-.976-.791-1.767-1.767-1.767zm-5.441-13.325c.976 0 1.767-.792 1.767-1.768s-.791-1.767-1.767-1.767-1.767.792-1.767 1.767c0 .977.791 1.768 1.767 1.768zm-3.394 6.913c-.976 0-1.767.791-1.767 1.767 0 .977.791 1.768 1.767 1.768s1.767-.791 1.767-1.768c0-.976-.791-1.767-1.767-1.767zm16.147-8.68c0-.976-.791-1.767-1.767-1.767-.977 0-1.768.792-1.768 1.767 0 .976.791 1.768 1.768 1.768.976-.001 1.767-.792 1.767-1.768zm-.14 10.447c0 .977.791 1.768 1.768 1.768.976 0 1.767-.791 1.767-1.768 0-.976-.791-1.767-1.767-1.767-.977 0-1.768.791-1.768 1.767zM41.769 13.937L45.4 31.699l.389 1.901c.715 1.626 2.339 2.762 4.23 2.762 1.89 0 3.514-1.136 4.23-2.761l.389-1.903 3.63-17.754c-2.658-.607-5.426-.928-8.268-.928-2.829 0-5.584.319-8.231.921zM19.325 29.332l19.683 8.76c.041.02.082.038.124.055.568.229 1.238.165 1.763-.23.522-.393.768-1.014.709-1.62-.005-.051-.012-.102-.021-.152l-2.995-21.332c-7.932 2.571-14.69 7.746-19.263 14.519zm-6.213 18.015l18.165 1.732 1.697.162c1.812-.167 3.43-1.401 3.995-3.249.542-1.772-.036-3.62-1.328-4.784l-1.879-1.023-15.833-8.616c-2.71 4.704-4.412 10.062-4.817 15.778zm22.045 9.174c.037-.036.071-.073.104-.112.396-.462.551-1.112.349-1.733-.202-.624-.712-1.06-1.307-1.199-.046-.011-.093-.02-.141-.027l-21.139-4.112c-.004.221-.008.441-.008.663 0 8.363 2.777 16.077 7.458 22.272l14.684-15.752zm7.879 10.876l.704-1.55c.433-1.768-.208-3.701-1.771-4.837-1.495-1.086-3.422-1.145-4.941-.312l-1.604 1.468-13.287 12.153c3.635 4.161 8.187 7.5 13.34 9.703l7.559-16.625zm8.072 21.27c0-.648-.496-1.174-1.108-1.174-.612 0-1.109.525-1.109 1.174s.497 1.174 1.109 1.174 1.108-.526 1.108-1.174zm10.954-3.696l-10.45-18.845c-.021-.041-.043-.081-.066-.121-.316-.523-.89-.875-1.546-.875-.655 0-1.227.35-1.544.872-.025.041-.048.083-.069.126L37.938 84.971c3.781 1.304 7.838 2.014 12.062 2.014s8.281-.711 12.062-2.014zm16.22-11.143L64.599 61.744l-1.244-1.099c-1.567-.942-3.612-.899-5.162.27-1.479 1.114-2.099 2.947-1.739 4.647l.922 1.937 7.738 16.265c5.11-2.291 9.604-5.708 13.168-9.936zM86.984 50c0-.438-.011-.874-.025-1.308l-21.062 4.48c-.049.009-.096.019-.143.03-.592.15-1.094.595-1.285 1.222-.191.626-.024 1.274.382 1.729.032.037.066.072.103.106L79.91 71.753c4.447-6.105 7.074-13.622 7.074-21.753z"/>
</svg>
